<?xml version="1.0" encoding="utf-8"?>
<!-- Generator: Adobe Illustrator 27.0.0, SVG Export Plug-In . SVG Version: 6.00 Build 0)  -->
<svg version="1.1" id="Слой_1" xmlns="http://www.w3.org/2000/svg" xmlns:xlink="http://www.w3.org/1999/xlink" x="0px" y="0px"
	 viewBox="0 0 108.5 12.2" style="enable-background:new 0 0 108.5 12.2;" xml:space="preserve">
<style type="text/css">
	.st0{display:none;}
	.st1{display:inline;}
	.st2{display:inline;fill:none;stroke:#000000;stroke-linecap:round;stroke-linejoin:round;stroke-miterlimit:10;}
	.st3{fill:#FEFEFE;}
	.st4{fill:#010101;}
	.st5{fill:#020202;}
	.st6{fill:#030303;}
	.st7{fill:#040404;}
	.st8{fill:#0B0B0B;}
	.st9{fill:#0A0A0A;}
	.st10{fill:#131313;}
	.st11{fill:#161616;}
	.st12{fill:#141414;}
	.st13{fill:#151515;}
	.st14{fill:#FAFAFA;}
	.st15{fill:#0245AF;}
</style>
<g class="st0">
	<path class="st1" d="M8.3,3.2L8.6,4C8.7,3.7,8.8,3.5,9,3.2s0.2-0.5,0.4-0.7L14-6.4c0.1-0.1,0.1-0.2,0.2-0.3
		c0.1-0.1,0.1-0.1,0.2-0.1c0.1,0,0.2-0.1,0.2-0.1h2.6V9h-2.6V-1.2c0-0.2,0-0.4,0-0.6s0-0.5,0-0.7l-4.8,9C9.7,6.7,9.6,6.9,9.4,7
		S9,7.2,8.8,7.2H8.4C8.2,7.2,8,7.1,7.8,7C7.6,6.9,7.5,6.7,7.4,6.5l-4.9-9c0,0.2,0,0.5,0.1,0.7s0,0.4,0,0.6V9.1H0V-6.8h2.6
		c0.1,0,0.2,0,0.3,0.1c0,0,0.1,0,0.1,0.1c0.1,0.1,0.1,0.2,0.2,0.3L8,2.5C8.1,2.7,8.2,3,8.3,3.2z"/>
	<path class="st1" d="M39,1.2c0,1.1-0.2,2.2-0.6,3.2c-0.4,1-0.9,1.8-1.6,2.6c-0.7,0.7-1.6,1.3-2.5,1.7c-2.1,0.8-4.5,0.8-6.6,0
		c-1-0.4-1.8-1-2.5-1.7s-1.3-1.6-1.6-2.6c-0.4-1-0.6-2.1-0.6-3.2S23.2-1,23.6-2s0.9-1.8,1.6-2.6s1.6-1.4,2.6-1.8
		C28.7-6.8,29.9-7,31-7c1.1,0,2.2,0.2,3.3,0.6c1,0.4,1.8,1,2.5,1.7s1.3,1.6,1.6,2.6C38.9-1.1,39,0.1,39,1.2z M36,1.2
		c0-0.8-0.1-1.6-0.3-2.4c-0.2-0.7-0.5-1.3-1-1.8c-0.4-0.5-1-0.9-1.6-1.1c-1.4-0.5-2.8-0.5-4.2,0c-0.6,0.2-1.2,0.6-1.6,1.1
		c-0.5,0.5-0.8,1.1-1,1.8c-0.2,0.8-0.4,1.6-0.4,2.4s0.1,1.6,0.4,2.4c0.2,0.6,0.5,1.2,1,1.8c0.4,0.5,1,0.9,1.6,1.1
		c1.4,0.5,2.8,0.5,4.2,0c0.6-0.2,1.1-0.6,1.6-1.1s0.8-1.1,1-1.8C35.9,2.8,36,2,36,1.2z"/>
	<path class="st1" d="M59.9,1.2c0,0.7-0.1,1.3-0.2,2c-0.1,0.6-0.4,1.2-0.6,1.8c-0.3,0.6-0.6,1.1-1,1.6s-0.8,0.9-1.3,1.2l4,4.4h-2.4
		c-0.3,0-0.7,0-1-0.1s-0.6-0.3-0.8-0.5L54.2,9c-0.4,0.1-0.8,0.2-1.2,0.2c-0.4,0.1-0.8,0.1-1.2,0.1c-1.1,0-2.2-0.2-3.3-0.6
		c-0.9-0.4-1.8-1-2.5-1.7s-1.3-1.6-1.6-2.6c-0.4-1-0.6-2.1-0.6-3.2S44-1,44.4-2s0.9-1.9,1.6-2.6c0.7-0.7,1.6-1.3,2.6-1.7
		s2.2-0.6,3.3-0.6s2.2,0.2,3.3,0.6c1,0.4,1.8,1,2.5,1.7S59-3,59.3-2C59.7-1.1,59.9,0.1,59.9,1.2z M56.9,1.2c0-0.8-0.1-1.6-0.3-2.4
		c-0.2-0.7-0.5-1.3-1-1.8c-0.4-0.5-1-0.9-1.6-1.1c-1.4-0.5-2.8-0.5-4.2,0c-0.6,0.2-1.2,0.6-1.6,1.1c-0.5,0.5-0.8,1.1-1,1.8
		c-0.3,0.8-0.4,1.6-0.4,2.4s0.1,1.6,0.3,2.4c0.2,0.6,0.5,1.2,1,1.8c0.4,0.5,1,0.9,1.6,1.1c1.4,0.5,2.8,0.5,4.2,0
		c0.6-0.2,1.1-0.6,1.6-1.1s0.8-1.1,1-1.8C56.8,2.8,56.9,2,56.9,1.2L56.9,1.2z"/>
	<path class="st1" d="M71.9,6.7c0.5,0,1-0.1,1.5-0.3c0.4-0.2,0.8-0.5,1.1-0.8c0.3-0.4,0.6-0.8,0.7-1.2c0.2-0.5,0.3-1.1,0.2-1.6v-9.6
		h3v9.5c0,0.9-0.1,1.8-0.5,2.6c-0.3,0.8-0.7,1.5-1.3,2.1C76,8,75.3,8.5,74.5,8.8c-1.8,0.7-3.7,0.7-5.5,0c-1.6-0.6-2.8-1.9-3.4-3.4
		c-0.3-0.8-0.5-1.7-0.5-2.6v-9.6h3v9.5c0,0.6,0.1,1.1,0.2,1.6s0.4,0.9,0.7,1.3c0.3,0.4,0.7,0.6,1.1,0.8C70.9,6.6,71.4,6.7,71.9,6.7z
		"/>
	<path class="st1" d="M88.2,9.1h-3V-6.8h3V9.1z"/>
	<path class="st1" d="M96.9-6.8c0.1,0,0.2,0,0.2,0.1c0.1,0,0.1,0.1,0.2,0.1c0.1,0.1,0.2,0.2,0.2,0.2l8.4,10.6c0-0.3,0-0.5-0.1-0.8
		s0-0.5,0-0.7v-9.5h2.6V9.1H107c-0.2,0-0.4,0-0.6-0.1s-0.3-0.2-0.4-0.4L97.6-2c0,0.2,0,0.5,0,0.7s0,0.4,0,0.6v9.8h-2.5V-6.8h1.6
		H96.9z"/>
</g>
<g class="st0">
	<path class="st2" d="M90.7,2c0.5-2,1.7-3.5,2.5-5.3c0.2-0.4,0.5-0.9,0.1-1.7c-1.2-0.8-2.5,0.3-3.6,1.1c-2.3,1.8-3.8,4.6-5.3,7.6
		c-1.7,3.5-2.9,7.4-4.5,11"/>
	<path class="st2" d="M0.5,23.2c1.5-3.4,3-6.7,4.6-10c1.1-2.5,1.4-5.7,1.7-8.6c0.1-1.4,0.6-3-0.2-4.4c1.2-1.7,2.8-2.7,3.9-4.7
		C8.7-6.2,6.9-4.8,5.2-5"/>
	<path class="st2" d="M84-3.3c-1.4,0.4-2.4,1.8-3.7,2.6C77.6,1,74.9,1.9,72,1.2c-1.3-0.3-2.4-1.1-2.9-3"/>
	<path class="st2" d="M32.1-3.1c-0.7-0.4-1.1,0.5-1.5,0.9c-3.1,2.4-6.2,4.2-9.9,3.4C19.1,0.9,18,0,17.3-2"/>
	<path class="st2" d="M48.3-4.8c-1.3,1.9-3.2,2.7-4.7,4.4c-3.7,4.3-6.5,9.5-8.7,15.3c-0.1,0.2-0.2,0.4-0.3,0.6"/>
	<path class="st2" d="M105.7-5.2c-2.5,1.4-4.8,3.3-7.4,4.5c-2.5,1.1-5.1,2-7.7,2.9C90.4,2.3,90.2,2.1,90,2"/>
	<path class="st2" d="M20.3-5.2c-2.8,1.5-4.7,4.7-7.1,7c-2.8,2.8-4.8,6.5-7.3,9.7"/>
	<path class="st2" d="M38.5-3.5c-0.3,2.7-1.2,5.1-1.9,7.6c-0.7,2.8-1.6,5.6-2.1,8.5c-0.6,3.5-1.3,6.9-1.9,10.4"/>
	<path class="st2" d="M47.1-3.1c0.2,1.5-0.9,2.4-0.9,3.9C47,2,48,1.2,48.8,0.7C51-0.9,53-2.8,55.1-4.6c0.2-0.2,0.4-0.3,0.6-0.4
		c0.6,0.6,0.8,1.6,1.2,2.3c2.5,4,4.7,4.3,8.8,2.6c2.2-0.9,3.7-3.1,5.5-4.7C71.5-5.1,71.7-4.9,72-5"/>
	<path class="st2" d="M85.2-5.4c-2.1,5.5-3.5,11.3-5.3,17c-0.8,2.5-0.5,5.3-1.5,7.6"/>
	<path class="st2" d="M39.4-5c-2.2,2.1-4.4,4.6-7.2,5.7c-0.6-2.3,0.1-3.9,1-5.5"/>
</g>
<g class="st0">
	<g class="st1">
		<path class="st3" d="M54.4,11.4c-17.6,0-35.1,0-52.7,0c-0.8,0-1-0.2-1-1c0-5.7,0-11.5,0-17.2c0-0.6,0.1-0.7,0.7-0.7
			c35.3,0,70.5,0,105.8,0c0.6,0,0.7,0.1,0.7,0.7c0,5.7,0,11.5,0,17.2c0,0.8-0.2,1-1,1C89.5,11.4,71.9,11.4,54.4,11.4z"/>
		<path class="st4" d="M105.1,0.2c0-1.9,0-3.6,0-5.2c0-0.5,0-0.8,0.7-0.8s0.8,0.2,0.8,0.8c0,2.3,0,4.5,0,6.8c0,0.3,0.3,0.9-0.3,1
			c-0.5,0.1-0.9,0-1.3-0.4c-1.2-1.5-2.4-3-3.5-4.5c-0.2-0.3-0.4-0.5-0.8-0.9c0,1.9,0,3.5,0,5.1c0,0.5,0,0.8-0.7,0.8S99.3,2.5,99.3,2
			c0-2.3,0-4.5,0-6.8c0-0.3-0.2-0.8,0.3-0.9s0.9,0.1,1.2,0.5c1.2,1.5,2.4,3,3.5,4.5C104.5-0.5,104.7-0.2,105.1,0.2z"/>
		<path class="st5" d="M64.6-0.8c0.8,1.2,1.6,2.3,2.4,3.6C66,3.1,65.2,3,64.6,2c-0.4-0.7-0.9-1.4-1.4-2.1c-0.3-0.4-0.6-0.5-1-0.4
			C61.7-0.4,62,0.1,62,0.4c0,0.6,0,1.1,0,1.7C62,2.6,62,3,61.3,3c-0.6,0-0.9-0.1-0.9-0.9c0-2.4,0-4.7,0-7.1c0-0.6,0.2-0.9,0.8-0.8
			c1,0.1,2-0.1,3,0.1c1.1,0.2,2,0.7,2.2,1.9C66.5-2.5,66.1-1.6,65-1C64.9-0.9,64.8-0.8,64.6-0.8z"/>
		<path class="st4" d="M75.6,0.5c0,2-0.2,2.2-2.4,2.5c-3.5,0.5-6-2.3-5.1-5.7c0.8-2.9,4.5-4.2,7-2.4c0.3,0.2,0.5,0.4,0.2,0.8
			c-0.2,0.4-0.5,0.7-1,0.4c-0.7-0.5-1.5-0.6-2.4-0.5c-1.2,0.1-2,0.9-2.3,2c-0.3,1.3-0.2,2.6,0.8,3.5c0.9,0.8,2,0.8,3.2,0.5
			C74.3,1.4,74,0.7,74,0.3c0.1-0.6-0.4-0.5-0.7-0.4c-0.5,0-0.7-0.1-0.7-0.7s0.3-0.5,0.7-0.5c0.1,0,0.2,0,0.2,0
			C75.6-1.5,75.6-1.5,75.6,0.5z"/>
		<path class="st6" d="M52.9-1.4c0-1.2,0-2.4,0-3.6c0-0.6,0.2-0.8,0.8-0.8c1.3,0,2.6,0,3.8,0c0.5,0,0.8,0,0.8,0.7s-0.5,0.6-0.9,0.6
			c-0.7,0-1.4,0-2.2,0c-1.1-0.1-0.8,0.7-0.8,1.3c-0.1,0.6-0.1,1.2,0.9,1.1c0.5-0.1,1,0,1.4,0s0.8,0,0.8,0.6c0,0.5-0.2,0.7-0.7,0.7
			c-0.4,0-0.8,0-1.2,0c-1-0.2-1.1,0.3-1.2,1.2c0,1.1,0.3,1.4,1.3,1.3c0.6-0.1,1.3,0,1.9,0c0.4,0,0.7,0,0.7,0.6
			c0,0.5-0.1,0.7-0.7,0.7c-1.4,0-2.7,0-4.1,0c-0.6,0-0.7-0.2-0.7-0.8C52.9,0.9,52.9-0.2,52.9-1.4z"/>
		<path class="st5" d="M77.7-1.4c0-1.2,0-2.3,0-3.5c0-0.6,0.1-0.9,0.8-0.9c1.3,0.1,2.6,0,3.8,0c0.5,0,0.8,0.1,0.8,0.7
			s-0.4,0.6-0.8,0.6c-0.7,0-1.4,0.1-2,0c-1-0.1-1,0.5-1,1.2s0,1.4,1,1.2c0.3,0,0.6,0,0.8,0c0.5,0.1,1.2-0.4,1.2,0.7
			c0,1-0.7,0.5-1.1,0.6c-0.2,0-0.4,0-0.6,0c-1.1-0.2-1.4,0.3-1.4,1.4c0,0.9,0.2,1.2,1.1,1.1c0.7-0.1,1.4,0,2.2,0
			c0.5,0,0.6,0.2,0.6,0.6c0,0.5-0.1,0.6-0.6,0.6c-1.4,0-2.8,0-4.2,0c-0.5,0-0.7-0.2-0.7-0.7C77.7,1,77.7-0.2,77.7-1.4z"/>
		<path class="st5" d="M91.9-1.4c0-1.2,0-2.4,0-3.6c0-0.6,0.1-0.8,0.7-0.8c1.3,0,2.6,0,4,0c0.4,0,0.8,0,0.8,0.6s-0.3,0.7-0.8,0.7
			c-0.6,0-1.1,0-1.7,0c-1.3,0-1.8,0.8-1.3,2c0.1,0.4,0.4,0.3,0.7,0.3c0.6,0,1.1,0,1.7,0s0.7,0.2,0.7,0.7s-0.2,0.6-0.6,0.6
			s-0.7,0-1.1,0c-1-0.1-1.4,0.1-1.3,1.3c0,1,0.3,1.3,1.3,1.2c0.7-0.1,1.4,0,2,0c0.5,0,0.6,0.2,0.6,0.6c0,0.5-0.2,0.6-0.6,0.6
			c-1.4,0-2.8,0-4.2,0c-0.6,0-0.6-0.2-0.6-0.7C91.9,1,91.9-0.2,91.9-1.4z"/>
		<path class="st7" d="M86.7-2.2c0,0.2,0,0.5,0,0.7c0,1-0.3,2.1,0.1,2.8c0.5,0.7,1.7,0.2,2.6,0.2c0.5,0,0.7,0.1,0.7,0.7
			c0,0.6-0.3,0.7-0.7,0.6h-0.1c-1.4,0-3.1,0.5-3.9-0.2s-0.2-2.5-0.3-3.9c0-1.3,0-2.5,0-3.8c0-0.7,0.2-0.8,0.8-0.8
			c0.6,0,0.8,0.1,0.8,0.8C86.6-4.1,86.7-3.1,86.7-2.2z"/>
		<path class="st8" d="M15.3,2.9c-1.6,0-3.2,0-4.8,0c-0.4,0-0.4-0.4-0.4-0.6c0-2.4,0-4.8,0-7.2c0-0.3-0.1-0.6,0.3-0.6
			c1.6,0,3.2,0,4.8,0c0,0.2,0,0.3,0,0.5c-1.1,0-2.3,0.1-3.4,0c-0.8-0.2-1,0.1-1,1c0.1,2.3,0,2.3,2.3,2.3c0.5,0,1-0.2,1.6,0.3
			c-1.1,0.3-2.1,0.2-3,0.2c-0.6,0-0.8,0.1-0.8,0.8c-0.1,2.8-0.1,2.8,2.6,2.8c0.6,0,1.3-0.1,1.9,0.1C15.3,2.6,15.3,2.7,15.3,2.9z"/>
		<path class="st8" d="M40.3-5.2c-1.1,0.3-2.2,0.1-3.3,0.1c-0.9,0-1.2,0.1-1.2,1.1c0.1,2.3,0,2.3,2.3,2.3c0.5,0,1-0.2,1.5,0.3
			c-1.1,0.3-2,0.1-2.9,0.1c-0.6,0-0.9,0.1-0.9,0.8c-0.1,2.7-0.1,2.7,2.7,2.7c0.6,0,1.1,0,1.7,0c0.1,0,0.1,0.1,0.2,0.1
			c0,0.4-0.3,0.4-0.5,0.4c-1.3,0-2.6,0-3.9,0c-0.5,0-0.7-0.2-0.7-0.7c0-2.4,0-4.8,0-7.2c0-0.2-0.1-0.6,0.2-0.6c1.6,0,3.2,0,4.9,0
			C40.3-5.4,40.3-5.3,40.3-5.2z"/>
		<path class="st9" d="M43-1.4c0-1.2,0-2.4,0-3.6c0-0.5,0.1-0.7,0.7-0.7c0.7,0,1.4,0,2.1,0c1.4,0.1,2.3,0.9,2.4,2.2
			c0.2,1.3-0.6,2.3-2,2.7c-0.2,0.1-0.4,0.1-0.6,0.1c-0.7,0.1-1.6-0.3-2,0.3c-0.3,0.5-0.1,1.4-0.1,2.1c0,0.1,0,0.2,0,0.4
			c0,0.3,0.1,0.6-0.3,0.7c-0.4,0-0.3-0.4-0.3-0.6C43,1,43-0.2,43-1.4z"/>
		<path class="st6" d="M26.9-3.6c-0.2-0.2-0.4-0.4-0.7-0.8c0,2.3,0,4.4,0,6.5c0,0.3,0.2,0.8-0.3,0.7c-0.4,0-0.3-0.5-0.3-0.8
			c0-2.3,0-4.5,0-6.8c0-0.3-0.1-0.6,0.2-0.8c0.4-0.2,0.5,0.2,0.7,0.5C26.8-4.8,27-4.4,27.2-4C27.3-3.7,27.1-3.6,26.9-3.6z"/>
		<path class="st10" d="M26.9-3.6C27-3.7,27.1-3.9,27.2-4c1.4,1.8,2.7,3.6,4.1,5.5c0.1,0,0.2,0,0.2,0c0-1.7,0-3.3,0-5
			c0-0.7-0.3-1.4,0.2-2c0.3,0.4,0.2,0.8,0.2,1.2c0,1.7,0,3.5,0,5.2c0,0.6,0,1.1-0.8,1.3C29.6,0.3,28.2-1.6,26.9-3.6z"/>
		<path class="st5" d="M31.2,2.2c0.4-0.4,0.6-0.8,0.6-1.4c0-2.1,0-4.2,0-6.3c0.4-0.1,0.4,0.2,0.4,0.5c0,2.4,0,4.9,0,7.3
			c0,0.2,0.1,0.5-0.2,0.6C31.4,2.9,31.3,2.5,31.2,2.2z"/>
		<path class="st6" d="M6.2-4c0.2-0.3,0.4-0.7,0.6-1.1c-1.6,0-3,0-4.5,0C2.1-5.1,1.7-5,1.6-5.3c0-0.4,0.4-0.3,0.6-0.3
			c1.6,0,3.1,0,4.7,0c0.2,0,0.5-0.1,0.7,0.1C7.8-5.2,7.5-5,7.4-4.7C7.1-4.4,6.8-4,6.5-3.6C6.3-3.6,6.1-3.7,6.2-4z"/>
		<path class="st7" d="M2.7,1.7C2.5,2.1,2.3,2.4,3,2.4c1.2,0,2.4,0,3.6,0c0.4,0,0.8-0.2,1.3,0.4c-2.2,0-4.3,0-6.4,0
			c0.1-0.6,0.5-1,0.9-1.4C2.7,1.3,2.8,1.4,2.7,1.7z"/>
		<path class="st11" d="M2.7,1.7C2.6,1.6,2.5,1.5,2.4,1.4C3.5-0.5,4.9-2.2,6.2-4c0.1,0.1,0.2,0.2,0.3,0.3C5.3-1.9,4-0.1,2.7,1.7z"/>
		<path class="st12" d="M19.9-0.7c-1.2-1.5-2-3.2-3.1-4.8c0.6-0.4,0.8,0.1,1,0.5c0.8,1.2,1.4,2.6,2.4,3.7C20.3-1,20.1-0.8,19.9-0.7z
			"/>
		<path class="st13" d="M20.4-1.4C21-2.8,22-3.9,22.6-5.3c0.1-0.2,0.3-0.5,0.6-0.3c0.4,0.2,0,0.5-0.1,0.7c-0.9,1.4-1.7,2.8-2.6,4.2
			C20.3-0.9,20.3-1.1,20.4-1.4z"/>
		<path class="st4" d="M20.4-1.4c0,0.2,0,0.5,0.1,0.7c0,1,0,2.1,0,3.1c0,0.2,0,0.4-0.3,0.4s-0.3-0.2-0.3-0.4c0-1,0-2.1,0-3.1
			c0.1-0.2,0.2-0.4,0.3-0.6C20.2-1.3,20.3-1.4,20.4-1.4z"/>
		<path class="st14" d="M61.9-3c0.2-0.6-0.4-1.5,0.9-1.5c1.3,0.1,2,0.4,2,1.4s-0.7,1.5-2,1.5C61.5-1.5,62.1-2.5,61.9-3z"/>
		<path class="st3" d="M44.8-5.1c0.7,0,1.3,0,1.9,0.3c0.7,0.4,0.9,1,0.9,1.8s-0.4,1.4-1.1,1.7C45.9-1,45.3-1.1,44.7-1
			c-0.9,0.1-1.3-0.2-1.2-1.1c0.1-0.5,0.1-1.1,0-1.7C43.4-4.8,43.7-5.4,44.8-5.1z"/>
	</g>
</g>
<g transform="translate(0.000000,3000.000000) scale(0.100000,-0.100000)">
	<path class="st15" d="M3.8,29993.2c0.2-0.3,8.8-12.4,19.2-26.9s18.9-26.6,18.9-26.8c0-0.2-9-12.8-20.1-28s-20.3-27.9-20.5-28.1
		c-0.3-0.4,2.1-0.5,11.3-0.5h11.7l14.3,20.2c7.8,11.1,14.6,20.6,15,21.1c0.7,0.9,0.8,0.8,15.7-20.1l15-21l11.8-0.1
		c6.5,0,11.8,0,11.8,0.2c0,0.1-9.2,12.9-20.5,28.4s-20.5,28.5-20.5,28.9c0,0.3,8.5,12.3,18.8,26.6s18.9,26.1,19.1,26.4
		s-3.1,0.5-10.8,0.5H83l-13.9-19.6c-7.6-10.8-14-19.6-14.1-19.6s-6.5,8.8-14.2,19.5l-14,19.5l-11.6,0.1
		C5.8,29993.7,3.6,29993.6,3.8,29993.2z"/>
	<path class="st15" d="M129.1,29938.3v-55.5h4h4v18.1v18.1l19.5,0.2c10.7,0.1,20.3,0.3,21.4,0.5l1.9,0.2l13.1-18.6l13.1-18.6h4.5
		c2.5,0,4.5,0.1,4.5,0.2s-6.2,8.8-13.8,19.4l-13.8,19.3l3,1.1c9.1,3.3,15.2,8.5,19.1,16.5c3,6,3.9,10.5,3.6,18.8
		c-0.2,5.2-0.4,6.9-1.3,10c-4,13.7-15.4,22.5-32.3,25c-3.1,0.5-9.1,0.6-27.2,0.6h-23.3V29938.3z M178.9,29986
		c13.6-2.2,22.4-9.3,25.5-20.6c1.2-4.3,1.1-13.8-0.2-18.1c-2.2-7.5-7-13.3-13.9-16.6c-7.8-3.8-12.9-4.4-35.9-4.4H137v30.2v30.2h19.1
		C170.8,29986.6,176,29986.5,178.9,29986z"/>
	<path class="st15" d="M252.5,29942.6c-13-28.1-24.4-53.1-25.5-55.5l-2-4.3h4.3h4.3l7,15.6l7,15.6H280h32.4l7.1-15.5l7.1-15.6
		l4.2-0.1c2.3,0,4.3,0,4.3,0.2s-11.4,25.1-25.4,55.4l-25.4,55l-4.1,0.1l-4.1,0.1L252.5,29942.6z M294.8,29953.1
		c8-17.5,14.5-32,14.5-32.1c0-0.2-13.1-0.3-29-0.3c-28.5,0-29,0-28.8,0.8c0.3,1.3,28.4,63.4,28.6,63.4
		C280.2,29985,286.8,29970.6,294.8,29953.1z"/>
	<path class="st15" d="M355.5,29938.3v-55.5h23.3c28.7,0,32.8,0.3,42.6,3.6c21,7,34.9,24.7,36.7,46.9c0.7,8.5-0.3,17.1-3,24.5
		c-6.2,17.7-21,30.2-41.1,34.8c-3.9,0.9-5,0.9-31.2,1l-27.2,0.2L355.5,29938.3L355.5,29938.3z M409.1,29986
		c11.9-1.9,21.5-6.8,28.9-14.6c5.5-5.8,8.9-12.2,11-20.5c0.8-3.3,1-4.7,0.9-12.6c0-8.3-0.1-9.3-1.1-13
		c-3.4-12.6-10.4-21.8-21.2-28.1c-3.3-2-8.5-4.1-12.1-5c-7-1.8-8.7-2-30.7-2.2l-21.4-0.2v48.4v48.4h21
		C400.8,29986.6,406.2,29986.5,409.1,29986z"/>
	<path class="st15" d="M486.9,29938.3v-55.5h38.2h38.2v3.5v3.5h-34.2h-34.2v22.9v22.9h29.6h29.6v3.5v3.5h-29.6h-29.6v21.9v21.9h32.9
		c18.1,0,33,0.1,33.1,0.3c0.1,0.2,0.1,1.8,0,3.5l-0.3,3.2h-36.8h-36.9C486.9,29993.4,486.9,29938.3,486.9,29938.3z"/>
	<path class="st15" d="M593.2,29938.3v-55.5h3.8h3.8v47.4c0,31.1,0.1,47.3,0.4,47c0.2-0.2,10.7-18.1,23.3-39.8l22.9-39.4h2.2h2.2
		l22.9,39.6c12.6,21.8,23.1,39.8,23.3,40c0.3,0.3,0.4-16.1,0.4-47.2v-47.6h4h4l-0.3,14.1c-0.2,7.7-0.3,32.7-0.3,55.5v41.4h-3.3h-3.3
		l-24.7-42.7c-13.6-23.5-24.9-42.7-25-42.7s-11.3,19.2-24.9,42.7l-24.6,42.6l-3.4,0.1l-3.4,0.1
		C593.2,29993.9,593.2,29938.3,593.2,29938.3z"/>
	<path class="st15" d="M753.8,29942.6c-13-28.1-24.4-53.1-25.5-55.5l-2-4.3h4.3h4.3l7,15.6l7,15.6h32.4h32.4l7.1-15.5l7.1-15.6
		l4.2-0.1c2.3,0,4.3,0,4.3,0.2s-11.4,25.1-25.4,55.4l-25.4,55l-4.1,0.1l-4.1,0.1L753.8,29942.6z M796,29953.1
		c8-17.5,14.5-32,14.5-32.1c0-0.2-13.1-0.3-29-0.3c-28.5,0-29,0-28.8,0.8c0.3,1.3,28.4,63.4,28.6,63.4
		C781.4,29985,788,29970.6,796,29953.1z"/>
	<path class="st15" d="M857.2,29938.3v-55.5h4h4v18.1v18.1l19.5,0.2c10.7,0.1,20.3,0.3,21.4,0.5l1.9,0.2l13.1-18.6l13.1-18.6h4.5
		c2.5,0,4.5,0.1,4.5,0.2s-6.2,8.8-13.8,19.4l-13.8,19.3l3,1.1c9.1,3.3,15.2,8.5,19.1,16.5c3,6,3.9,10.5,3.6,18.8
		c-0.2,5.2-0.4,6.9-1.3,10c-4,13.7-15.4,22.5-32.3,25c-3.1,0.5-9.1,0.6-27.2,0.6h-23.3V29938.3z M907,29986
		c13.6-2.2,22.4-9.3,25.5-20.6c1.2-4.3,1.1-13.8-0.2-18.1c-2.2-7.5-7-13.3-13.9-16.6c-7.8-3.8-12.9-4.4-35.9-4.4h-17.4v30.2v30.2
		h19.1C898.9,29986.6,904.1,29986.5,907,29986z"/>
	<path class="st15" d="M971.4,29938.3v-55.5h4h4v14.7v14.7l12.5,12.7l12.5,12.7l0.9-1.1c0.5-0.6,11.3-12.9,23.9-27.4l22.9-26.3h4.7
		c2.5,0,4.7,0.1,4.7,0.2s-11.6,13.7-25.9,30.2c-14.2,16.5-25.9,30.1-25.9,30.3c0,0.2,9.5,10.1,36.4,37.8l12.1,12.4h-4.8h-4.8
		l-34.5-35.5l-34.5-35.5l-0.1,35.5l-0.1,35.5h-4h-4L971.4,29938.3L971.4,29938.3z"/>
	<path class="st15" d="M1069.4,29949.9c-4.2-0.9-7.9-4.5-8.8-8.5c-1.9-9.3,7.5-16.7,16.3-12.8c4.4,2,6.8,5.5,6.8,10.3
		c0,3.4-0.7,5.3-2.8,7.6C1078.4,29949.4,1073.6,29950.8,1069.4,29949.9z M1076.7,29946.9c5-2.8,6-10.3,1.8-14.5
		c-1.8-1.8-3.5-2.5-6.3-2.5s-5,1-6.8,3.1c-1.7,1.9-2.3,4-2.1,6.9C1063.7,29946.5,1070.7,29950.2,1076.7,29946.9z"/>
	<path class="st15" d="M1068.9,29944.6l-1.2-0.2v-5.6v-5.6h1.3c1.3,0,1.3,0,1.3,2.3v2.4l1.5-0.3c1.7-0.3,2-0.6,2.6-2.9
		c0.4-1.4,0.6-1.6,1.8-1.6h1.4l-0.6,2c-0.3,1.1-1,2.4-1.4,2.8l-0.8,0.9l1,0.5c1.2,0.6,1.7,2.2,1,3.4
		C1076,29944.6,1072.9,29945.2,1068.9,29944.6z M1074.2,29941.9c0.8-1.2-0.2-2.2-2.2-2.3l-1.7-0.1v1.7v1.7l1.7-0.1
		C1073.1,29942.7,1073.9,29942.4,1074.2,29941.9z"/>
</g>
</svg>
